<svg width="30" height="27" viewBox="0 0 30 27" fill="none" xmlns="http://www.w3.org/2000/svg">
<mask id="path-1-outside-1" maskUnits="userSpaceOnUse" x="0" y="0" width="30" height="27" fill="black">
<rect fill="white" width="30" height="27"/>
<path d="M18.8335 8.74473C18.6192 8.96159 18.4048 9.14746 18.2211 9.36431C18.1598 9.42627 18.0986 9.48823 18.0374 9.55019C17.2412 10.4176 16.445 11.254 15.6795 12.1214C14.7914 13.0818 13.934 14.0112 13.046 14.9715C12.8929 15.1574 12.7398 15.3432 12.5867 15.4981C12.0967 16.0558 11.6068 16.6134 11.1474 17.202C11.0862 17.2949 10.9943 17.3879 10.9331 17.4498C10.8412 17.5428 10.7187 17.6357 10.6269 17.7286C10.4431 17.8835 10.2594 18.0694 10.1063 18.2243C9.95318 18.3792 9.80007 18.5341 9.64696 18.689C9.49385 18.4411 9.34074 18.1933 9.21825 17.9455C9.12639 17.7906 9.03452 17.6667 8.97328 17.5118C8.91203 17.4188 8.88141 17.3569 8.82017 17.2639C8.39146 16.6134 7.96276 15.9628 7.53405 15.3123C7.25845 14.8786 6.98286 14.4758 6.70726 14.0421C6.55415 13.7943 6.43166 13.5465 6.27855 13.3296C6.09482 12.9888 5.91109 12.6481 5.69673 12.3073C5.48238 11.9356 5.29865 11.5948 5.11492 11.223C5.05367 11.1301 4.93119 11.0682 4.83932 11.0682C4.77808 11.0682 4.71683 11.0682 4.68621 11.0991C4.5331 11.1921 4.47186 11.3779 4.56372 11.5638C4.71683 11.8426 4.86994 12.1524 5.02305 12.4312C5.11492 12.6171 5.23741 12.803 5.32927 12.9888C5.54363 13.3916 5.7886 13.8253 6.00295 14.228C6.03358 14.29 6.09482 14.3829 6.12544 14.4449C6.24793 14.6617 6.40104 14.8786 6.52353 15.0644C6.70726 15.3432 6.89099 15.653 7.10534 15.9318C7.35032 16.3036 7.59529 16.6753 7.84027 17.0471C7.96276 17.2639 8.11587 17.4498 8.23835 17.6667C8.2996 17.7286 8.33022 17.8216 8.39146 17.8835C8.63644 18.2862 8.85079 18.689 9.09577 19.0917C9.12639 19.1227 9.15701 19.1846 9.18763 19.2156C9.12639 19.2776 9.09577 19.3086 9.03452 19.3705C8.75892 18.9058 8.45271 18.4102 8.17711 17.9455C7.77902 17.2639 7.38094 16.5824 6.95223 15.9009C6.61539 15.3432 6.24793 14.7856 5.91109 14.228C5.54363 13.6394 5.17616 13.0818 4.8087 12.4932C4.74746 12.4002 4.65559 12.3383 4.56372 12.3073C4.37999 11.9975 4.19626 11.6568 4.04315 11.316C3.98191 11.1921 3.8288 11.0991 3.67569 11.0991C3.61445 11.0991 3.52258 11.1301 3.46134 11.1611C3.24698 11.285 3.18574 11.5328 3.30823 11.7497C3.5532 12.2144 3.79818 12.6481 4.04315 13.1128C4.13502 13.2677 4.25751 13.4535 4.34937 13.6084C4.62497 14.0731 4.90057 14.5378 5.17616 15.0025C4.8087 14.4758 4.44124 13.9492 4.07377 13.4226C3.98191 13.2986 3.89004 13.2057 3.76756 13.1747C3.73693 13.1747 3.67569 13.1437 3.61445 13.1437C3.52258 13.1437 3.43071 13.1747 3.33885 13.2057C3.21636 13.2677 3.1245 13.3916 3.09387 13.5155C3.06325 13.6394 3.06325 13.8253 3.15512 13.9182C4.1044 15.2503 5.02305 16.5824 5.94171 17.9145C6.4929 18.72 7.07472 19.5254 7.62592 20.3618C7.56467 20.2999 7.50343 20.2069 7.44218 20.145C7.28907 19.9901 7.16659 19.8042 7.0441 19.6493C6.73788 19.2776 6.43166 18.9058 6.12544 18.5031C5.69673 17.9765 5.26803 17.4188 4.8087 16.8922C4.37999 16.3036 3.92066 15.684 3.49196 15.0954C3.1245 14.7546 2.8489 14.3829 2.5733 14.0112C2.26708 13.6084 1.99148 13.1747 1.71589 12.772C1.65464 12.6791 1.5934 12.6171 1.47091 12.5861C1.44029 12.5861 1.40967 12.5861 1.37905 12.5861C1.3178 12.5861 1.25656 12.6171 1.19532 12.6481C1.01158 12.741 0.95034 13.0198 1.04221 13.1747C1.28718 13.5155 1.50153 13.8872 1.74651 14.228C1.869 14.3829 1.99148 14.5688 2.11397 14.7237C2.51206 15.2813 2.94076 15.8699 3.33885 16.4275C3.52258 16.6753 3.67569 16.8922 3.85942 17.14C3.95129 17.2639 4.04315 17.3879 4.1044 17.4808C4.34937 17.7906 4.59435 18.1004 4.83932 18.4102C5.26803 18.9678 5.72736 19.5254 6.15606 20.083C6.3398 20.3309 6.55415 20.5787 6.7685 20.8265C7.44218 21.601 8.08524 22.3755 8.75892 23.1809C8.85079 23.2739 8.94266 23.3978 9.0039 23.4907C8.97328 23.5527 8.91203 23.5836 8.88141 23.6456C8.51395 24.1103 8.17711 24.575 7.80965 25.0397C7.7484 25.1016 7.71778 25.1636 7.71778 25.2565C7.71778 25.3494 7.7484 25.4114 7.80965 25.4734C7.87089 25.5353 7.93213 25.5663 8.024 25.5663C8.08524 25.5663 8.17711 25.5353 8.23835 25.4734C8.63644 24.9777 9.0039 24.4511 9.40199 23.9554C9.43261 23.9864 9.46323 24.0173 9.49385 24.0483C9.24888 24.3581 8.97328 24.6369 8.7283 24.9467C8.60582 25.0706 8.54457 25.2255 8.54457 25.3804C8.54457 25.5353 8.60582 25.7212 8.7283 25.8141C8.97328 26.062 9.40199 26.062 9.61634 25.8141C9.83069 25.5663 10.045 25.3185 10.2594 25.0706C10.29 25.1326 10.3206 25.1945 10.3513 25.2565C10.4738 25.4734 10.7493 25.5663 10.9637 25.4734C10.9943 25.5353 11.0249 25.5973 11.0556 25.6283C11.2087 25.8451 11.4843 25.938 11.7292 25.8141C11.8517 25.7522 11.913 25.6283 11.9436 25.5043C11.9742 25.3804 11.9436 25.2565 11.8824 25.1326C11.7905 24.9157 11.668 24.7299 11.5149 24.544C12.158 23.7076 12.801 22.9021 13.4747 22.0657C14.2402 21.1363 15.0058 20.2379 15.7713 19.3085C16.0776 18.9368 16.4144 18.5341 16.7512 18.1623C17.4862 17.3259 18.2517 16.4895 18.9866 15.684C19.6603 14.9405 20.3034 14.197 20.9771 13.4535C21.467 12.8959 21.9876 12.3693 22.4775 11.8116C23.0287 11.223 23.5799 10.6344 24.1311 10.0458C24.7742 9.36431 25.4172 8.68278 26.0603 8.00124C26.5502 7.4746 27.0708 6.94796 27.5608 6.42131C27.7751 6.20446 27.9895 5.95663 28.1732 5.73978C28.4488 5.42999 28.6938 5.1202 28.9388 4.81041C28.9694 4.74845 29 4.65551 29 4.59356C29 4.46964 28.9694 4.3767 28.8775 4.28377C28.7856 4.19083 28.6938 4.15985 28.5713 4.15985C28.4488 4.15985 28.3569 4.19083 28.2651 4.28377C27.9895 4.62454 27.6833 4.93432 27.4077 5.24411C27.3158 5.33705 27.2239 5.42999 27.1627 5.52292L27.1933 5.49195C27.5301 5.08922 27.8364 4.68649 28.1426 4.25279C28.2651 4.09789 28.2345 3.88104 28.112 3.7881C28.0813 3.75713 28.0201 3.72615 27.9589 3.69517C27.9895 3.66419 28.0201 3.63321 28.0507 3.57125C28.0813 3.54027 28.112 3.50929 28.1426 3.47831C28.1732 3.41636 28.2038 3.38538 28.2651 3.32342C28.2651 3.29244 28.2651 3.29244 28.2957 3.26146C28.3263 3.23048 28.3263 3.16853 28.3569 3.13755C28.3876 3.04461 28.3569 2.88972 28.2651 2.82776C28.2038 2.7658 28.112 2.73482 28.0201 2.73482C27.9895 2.73482 27.9589 2.73482 27.9282 2.73482C27.867 2.7658 27.8057 2.7658 27.7445 2.79678C27.6526 2.82776 27.5914 2.85874 27.4995 2.92069C27.4077 2.95167 27.3464 3.01363 27.2546 3.04461C27.1321 3.10657 27.0096 3.16853 26.9177 3.23048C26.8258 3.29244 26.7646 3.41636 26.7646 3.50929C26.6115 3.69517 26.4278 3.85006 26.2747 4.00496C26.1828 4.12887 26.0603 4.22181 25.9378 4.31475C25.8459 4.40768 25.7541 4.50062 25.6622 4.56258C25.6316 4.59356 25.5703 4.65551 25.5397 4.68649C25.2335 4.9653 24.9273 5.24411 24.6211 5.49195C24.4067 5.67782 24.1924 5.86369 23.978 6.01859C22.7838 7.00991 21.5895 8.00124 20.3952 8.99257C20.2728 9.0855 20.1503 9.20942 20.0278 9.30235C20.2421 9.0855 20.4565 8.86865 20.6708 8.6518C21.6201 7.66047 22.6 6.70012 23.5493 5.73978C23.6718 5.61586 23.7943 5.49195 23.9168 5.36803C24.1924 5.1202 24.468 4.84139 24.7436 4.59356C25.1416 4.22181 25.5703 3.88104 25.9378 3.50929C25.9684 3.47831 25.9991 3.44734 25.9991 3.41636C26.1522 3.29244 26.3053 3.13755 26.4584 3.01363C26.6727 2.79678 26.8871 2.6109 27.1014 2.39405C27.377 2.11524 27.6833 1.83643 27.9282 1.55762C27.9895 1.49566 28.0201 1.40273 28.0201 1.30979C28.0201 1.21685 27.9895 1.12392 27.9282 1.06196C27.8976 1.03098 27.8057 1 27.7445 1C27.6526 1 27.5608 1.03098 27.4995 1.09294C27.2239 1.37175 26.9177 1.61958 26.6421 1.89839C26.4278 2.11524 26.1828 2.30112 25.9684 2.51797C25.8766 2.57993 25.8153 2.67286 25.7235 2.73482C25.6928 2.73482 25.6316 2.70384 25.601 2.70384C25.5091 2.70384 25.4172 2.73482 25.356 2.7658C24.866 3.16853 24.4067 3.57125 23.9168 3.97398C23.7024 4.15985 23.4881 4.34573 23.2737 4.5316C23.1206 4.65551 22.9675 4.77943 22.845 4.90335C22.3244 5.36803 21.8345 5.83271 21.3139 6.2974C21.0383 6.54523 20.7933 6.79306 20.5484 7.07187C19.9665 7.62949 19.4153 8.18711 18.8335 8.74473ZM22.5082 9.02354C22.5694 8.96159 22.6 8.93061 22.6613 8.86865V8.89963C22.5694 9.02354 22.4775 9.11648 22.355 9.2404C22.1713 9.42627 21.9876 9.64312 21.8345 9.829C21.467 10.2627 21.0996 10.6654 20.7321 11.0991C20.4871 11.3779 20.2728 11.6258 20.0278 11.9046C19.8747 12.0595 19.7522 12.2144 19.5991 12.3693C19.3847 12.5861 19.1704 12.803 18.956 13.0198C18.8029 13.1747 18.6804 13.3296 18.5579 13.4535C17.7618 14.3519 16.9656 15.2193 16.1694 16.1177C15.3733 16.9851 14.6077 17.8525 13.8115 18.72C12.8929 19.7423 12.0048 20.7646 11.0862 21.8178C11.0556 21.8488 11.0556 21.8798 11.0249 21.9108L10.9943 21.8798C11.2087 21.632 11.423 21.3841 11.6068 21.1363C12.7398 19.7732 13.8728 18.3792 15.0058 17.0161C15.1589 16.8302 15.2814 16.6753 15.4345 16.4895C15.4651 16.4275 15.5264 16.3965 15.557 16.3346C16.0163 15.8389 16.4756 15.3432 16.935 14.8166C17.5474 14.166 18.1598 13.4845 18.7417 12.834C18.8948 12.6791 19.0173 12.5242 19.1704 12.3693C19.2929 12.2454 19.4153 12.0905 19.5685 11.9665C20.579 11.0062 21.5283 10.0149 22.5082 9.02354ZM10.3819 22.6543C10.4125 22.7162 10.4738 22.7782 10.5044 22.8092C10.4738 22.8402 10.4738 22.8401 10.4431 22.8711C10.4125 22.8092 10.3513 22.7472 10.3206 22.6853C10.3513 22.6853 10.3819 22.6853 10.3819 22.6543ZM25.8153 5.83271C25.4479 6.23544 25.111 6.63817 24.7436 7.00991C24.6823 7.10285 24.5904 7.16481 24.4986 7.25775C24.2842 7.4746 24.0699 7.69145 23.8555 7.9083C23.7943 7.97026 23.7637 8.00124 23.7024 8.0632C23.6718 8.0632 23.6412 8.0632 23.6105 8.0632C23.5799 8.0632 23.5799 8.0632 23.5493 8.0632C23.6105 8.00124 23.6412 7.9083 23.6105 7.81537C23.8861 7.56753 24.1311 7.28872 24.4067 7.04089C24.5598 6.886 24.7436 6.7311 24.8967 6.57621C25.2641 6.23544 25.6316 5.89467 25.9991 5.5539C26.0297 5.52292 26.0297 5.52292 26.0603 5.49195C25.9991 5.61586 25.9072 5.7088 25.8153 5.83271ZM20.5484 9.76704C20.334 9.98389 20.1503 10.2007 19.9359 10.4176C19.201 11.223 18.4354 11.9975 17.7005 12.803C17.1493 13.3916 16.5981 13.9802 16.0469 14.5688C15.7713 14.8476 15.4957 15.1574 15.2508 15.4672C14.0565 16.7993 12.8623 18.1314 11.668 19.4634C11.3312 19.8352 10.9943 20.2069 10.6575 20.5787C10.6575 20.5477 10.6269 20.5477 10.6269 20.5167C10.535 20.3309 10.4431 20.145 10.3513 19.9591C10.3206 19.8972 10.29 19.8352 10.2594 19.7732C10.3513 19.6493 10.4738 19.5254 10.5656 19.4325C11.0556 18.8748 11.5455 18.2862 12.0355 17.7286C12.4948 17.202 12.9541 16.6444 13.4135 16.1177C13.5666 15.9628 13.6891 15.8079 13.8422 15.653C14.0259 15.4672 14.2096 15.2503 14.3934 15.0644C14.7914 14.7237 15.1895 14.3519 15.5876 14.0112C15.9857 13.6704 16.3838 13.3296 16.7819 12.9888C16.9044 12.8959 17.0268 12.772 17.1493 12.6791C18.2823 11.6568 19.4153 10.7274 20.5484 9.76704Z"/>
</mask>
<path d="M18.8335 8.74473C18.6192 8.96159 18.4048 9.14746 18.2211 9.36431C18.1598 9.42627 18.0986 9.48823 18.0374 9.55019C17.2412 10.4176 16.445 11.254 15.6795 12.1214C14.7914 13.0818 13.934 14.0112 13.046 14.9715C12.8929 15.1574 12.7398 15.3432 12.5867 15.4981C12.0967 16.0558 11.6068 16.6134 11.1474 17.202C11.0862 17.2949 10.9943 17.3879 10.9331 17.4498C10.8412 17.5428 10.7187 17.6357 10.6269 17.7286C10.4431 17.8835 10.2594 18.0694 10.1063 18.2243C9.95318 18.3792 9.80007 18.5341 9.64696 18.689C9.49385 18.4411 9.34074 18.1933 9.21825 17.9455C9.12639 17.7906 9.03452 17.6667 8.97328 17.5118C8.91203 17.4188 8.88141 17.3569 8.82017 17.2639C8.39146 16.6134 7.96276 15.9628 7.53405 15.3123C7.25845 14.8786 6.98286 14.4758 6.70726 14.0421C6.55415 13.7943 6.43166 13.5465 6.27855 13.3296C6.09482 12.9888 5.91109 12.6481 5.69673 12.3073C5.48238 11.9356 5.29865 11.5948 5.11492 11.223C5.05367 11.1301 4.93119 11.0682 4.83932 11.0682C4.77808 11.0682 4.71683 11.0682 4.68621 11.0991C4.5331 11.1921 4.47186 11.3779 4.56372 11.5638C4.71683 11.8426 4.86994 12.1524 5.02305 12.4312C5.11492 12.6171 5.23741 12.803 5.32927 12.9888C5.54363 13.3916 5.7886 13.8253 6.00295 14.228C6.03358 14.29 6.09482 14.3829 6.12544 14.4449C6.24793 14.6617 6.40104 14.8786 6.52353 15.0644C6.70726 15.3432 6.89099 15.653 7.10534 15.9318C7.35032 16.3036 7.59529 16.6753 7.84027 17.0471C7.96276 17.2639 8.11587 17.4498 8.23835 17.6667C8.2996 17.7286 8.33022 17.8216 8.39146 17.8835C8.63644 18.2862 8.85079 18.689 9.09577 19.0917C9.12639 19.1227 9.15701 19.1846 9.18763 19.2156C9.12639 19.2776 9.09577 19.3086 9.03452 19.3705C8.75892 18.9058 8.45271 18.4102 8.17711 17.9455C7.77902 17.2639 7.38094 16.5824 6.95223 15.9009C6.61539 15.3432 6.24793 14.7856 5.91109 14.228C5.54363 13.6394 5.17616 13.0818 4.8087 12.4932C4.74746 12.4002 4.65559 12.3383 4.56372 12.3073C4.37999 11.9975 4.19626 11.6568 4.04315 11.316C3.98191 11.1921 3.8288 11.0991 3.67569 11.0991C3.61445 11.0991 3.52258 11.1301 3.46134 11.1611C3.24698 11.285 3.18574 11.5328 3.30823 11.7497C3.5532 12.2144 3.79818 12.6481 4.04315 13.1128C4.13502 13.2677 4.25751 13.4535 4.34937 13.6084C4.62497 14.0731 4.90057 14.5378 5.17616 15.0025C4.8087 14.4758 4.44124 13.9492 4.07377 13.4226C3.98191 13.2986 3.89004 13.2057 3.76756 13.1747C3.73693 13.1747 3.67569 13.1437 3.61445 13.1437C3.52258 13.1437 3.43071 13.1747 3.33885 13.2057C3.21636 13.2677 3.1245 13.3916 3.09387 13.5155C3.06325 13.6394 3.06325 13.8253 3.15512 13.9182C4.1044 15.2503 5.02305 16.5824 5.94171 17.9145C6.4929 18.72 7.07472 19.5254 7.62592 20.3618C7.56467 20.2999 7.50343 20.2069 7.44218 20.145C7.28907 19.9901 7.16659 19.8042 7.0441 19.6493C6.73788 19.2776 6.43166 18.9058 6.12544 18.5031C5.69673 17.9765 5.26803 17.4188 4.8087 16.8922C4.37999 16.3036 3.92066 15.684 3.49196 15.0954C3.1245 14.7546 2.8489 14.3829 2.5733 14.0112C2.26708 13.6084 1.99148 13.1747 1.71589 12.772C1.65464 12.6791 1.5934 12.6171 1.47091 12.5861C1.44029 12.5861 1.40967 12.5861 1.37905 12.5861C1.3178 12.5861 1.25656 12.6171 1.19532 12.6481C1.01158 12.741 0.95034 13.0198 1.04221 13.1747C1.28718 13.5155 1.50153 13.8872 1.74651 14.228C1.869 14.3829 1.99148 14.5688 2.11397 14.7237C2.51206 15.2813 2.94076 15.8699 3.33885 16.4275C3.52258 16.6753 3.67569 16.8922 3.85942 17.14C3.95129 17.2639 4.04315 17.3879 4.1044 17.4808C4.34937 17.7906 4.59435 18.1004 4.83932 18.4102C5.26803 18.9678 5.72736 19.5254 6.15606 20.083C6.3398 20.3309 6.55415 20.5787 6.7685 20.8265C7.44218 21.601 8.08524 22.3755 8.75892 23.1809C8.85079 23.2739 8.94266 23.3978 9.0039 23.4907C8.97328 23.5527 8.91203 23.5836 8.88141 23.6456C8.51395 24.1103 8.17711 24.575 7.80965 25.0397C7.7484 25.1016 7.71778 25.1636 7.71778 25.2565C7.71778 25.3494 7.7484 25.4114 7.80965 25.4734C7.87089 25.5353 7.93213 25.5663 8.024 25.5663C8.08524 25.5663 8.17711 25.5353 8.23835 25.4734C8.63644 24.9777 9.0039 24.4511 9.40199 23.9554C9.43261 23.9864 9.46323 24.0173 9.49385 24.0483C9.24888 24.3581 8.97328 24.6369 8.7283 24.9467C8.60582 25.0706 8.54457 25.2255 8.54457 25.3804C8.54457 25.5353 8.60582 25.7212 8.7283 25.8141C8.97328 26.062 9.40199 26.062 9.61634 25.8141C9.83069 25.5663 10.045 25.3185 10.2594 25.0706C10.29 25.1326 10.3206 25.1945 10.3513 25.2565C10.4738 25.4734 10.7493 25.5663 10.9637 25.4734C10.9943 25.5353 11.0249 25.5973 11.0556 25.6283C11.2087 25.8451 11.4843 25.938 11.7292 25.8141C11.8517 25.7522 11.913 25.6283 11.9436 25.5043C11.9742 25.3804 11.9436 25.2565 11.8824 25.1326C11.7905 24.9157 11.668 24.7299 11.5149 24.544C12.158 23.7076 12.801 22.9021 13.4747 22.0657C14.2402 21.1363 15.0058 20.2379 15.7713 19.3085C16.0776 18.9368 16.4144 18.5341 16.7512 18.1623C17.4862 17.3259 18.2517 16.4895 18.9866 15.684C19.6603 14.9405 20.3034 14.197 20.9771 13.4535C21.467 12.8959 21.9876 12.3693 22.4775 11.8116C23.0287 11.223 23.5799 10.6344 24.1311 10.0458C24.7742 9.36431 25.4172 8.68278 26.0603 8.00124C26.5502 7.4746 27.0708 6.94796 27.5608 6.42131C27.7751 6.20446 27.9895 5.95663 28.1732 5.73978C28.4488 5.42999 28.6938 5.1202 28.9388 4.81041C28.9694 4.74845 29 4.65551 29 4.59356C29 4.46964 28.9694 4.3767 28.8775 4.28377C28.7856 4.19083 28.6938 4.15985 28.5713 4.15985C28.4488 4.15985 28.3569 4.19083 28.2651 4.28377C27.9895 4.62454 27.6833 4.93432 27.4077 5.24411C27.3158 5.33705 27.2239 5.42999 27.1627 5.52292L27.1933 5.49195C27.5301 5.08922 27.8364 4.68649 28.1426 4.25279C28.2651 4.09789 28.2345 3.88104 28.112 3.7881C28.0813 3.75713 28.0201 3.72615 27.9589 3.69517C27.9895 3.66419 28.0201 3.63321 28.0507 3.57125C28.0813 3.54027 28.112 3.50929 28.1426 3.47831C28.1732 3.41636 28.2038 3.38538 28.2651 3.32342C28.2651 3.29244 28.2651 3.29244 28.2957 3.26146C28.3263 3.23048 28.3263 3.16853 28.3569 3.13755C28.3876 3.04461 28.3569 2.88972 28.2651 2.82776C28.2038 2.7658 28.112 2.73482 28.0201 2.73482C27.9895 2.73482 27.9589 2.73482 27.9282 2.73482C27.867 2.7658 27.8057 2.7658 27.7445 2.79678C27.6526 2.82776 27.5914 2.85874 27.4995 2.92069C27.4077 2.95167 27.3464 3.01363 27.2546 3.04461C27.1321 3.10657 27.0096 3.16853 26.9177 3.23048C26.8258 3.29244 26.7646 3.41636 26.7646 3.50929C26.6115 3.69517 26.4278 3.85006 26.2747 4.00496C26.1828 4.12887 26.0603 4.22181 25.9378 4.31475C25.8459 4.40768 25.7541 4.50062 25.6622 4.56258C25.6316 4.59356 25.5703 4.65551 25.5397 4.68649C25.2335 4.9653 24.9273 5.24411 24.6211 5.49195C24.4067 5.67782 24.1924 5.86369 23.978 6.01859C22.7838 7.00991 21.5895 8.00124 20.3952 8.99257C20.2728 9.0855 20.1503 9.20942 20.0278 9.30235C20.2421 9.0855 20.4565 8.86865 20.6708 8.6518C21.6201 7.66047 22.6 6.70012 23.5493 5.73978C23.6718 5.61586 23.7943 5.49195 23.9168 5.36803C24.1924 5.1202 24.468 4.84139 24.7436 4.59356C25.1416 4.22181 25.5703 3.88104 25.9378 3.50929C25.9684 3.47831 25.9991 3.44734 25.9991 3.41636C26.1522 3.29244 26.3053 3.13755 26.4584 3.01363C26.6727 2.79678 26.8871 2.6109 27.1014 2.39405C27.377 2.11524 27.6833 1.83643 27.9282 1.55762C27.9895 1.49566 28.0201 1.40273 28.0201 1.30979C28.0201 1.21685 27.9895 1.12392 27.9282 1.06196C27.8976 1.03098 27.8057 1 27.7445 1C27.6526 1 27.5608 1.03098 27.4995 1.09294C27.2239 1.37175 26.9177 1.61958 26.6421 1.89839C26.4278 2.11524 26.1828 2.30112 25.9684 2.51797C25.8766 2.57993 25.8153 2.67286 25.7235 2.73482C25.6928 2.73482 25.6316 2.70384 25.601 2.70384C25.5091 2.70384 25.4172 2.73482 25.356 2.7658C24.866 3.16853 24.4067 3.57125 23.9168 3.97398C23.7024 4.15985 23.4881 4.34573 23.2737 4.5316C23.1206 4.65551 22.9675 4.77943 22.845 4.90335C22.3244 5.36803 21.8345 5.83271 21.3139 6.2974C21.0383 6.54523 20.7933 6.79306 20.5484 7.07187C19.9665 7.62949 19.4153 8.18711 18.8335 8.74473ZM22.5082 9.02354C22.5694 8.96159 22.6 8.93061 22.6613 8.86865V8.89963C22.5694 9.02354 22.4775 9.11648 22.355 9.2404C22.1713 9.42627 21.9876 9.64312 21.8345 9.829C21.467 10.2627 21.0996 10.6654 20.7321 11.0991C20.4871 11.3779 20.2728 11.6258 20.0278 11.9046C19.8747 12.0595 19.7522 12.2144 19.5991 12.3693C19.3847 12.5861 19.1704 12.803 18.956 13.0198C18.8029 13.1747 18.6804 13.3296 18.5579 13.4535C17.7618 14.3519 16.9656 15.2193 16.1694 16.1177C15.3733 16.9851 14.6077 17.8525 13.8115 18.72C12.8929 19.7423 12.0048 20.7646 11.0862 21.8178C11.0556 21.8488 11.0556 21.8798 11.0249 21.9108L10.9943 21.8798C11.2087 21.632 11.423 21.3841 11.6068 21.1363C12.7398 19.7732 13.8728 18.3792 15.0058 17.0161C15.1589 16.8302 15.2814 16.6753 15.4345 16.4895C15.4651 16.4275 15.5264 16.3965 15.557 16.3346C16.0163 15.8389 16.4756 15.3432 16.935 14.8166C17.5474 14.166 18.1598 13.4845 18.7417 12.834C18.8948 12.6791 19.0173 12.5242 19.1704 12.3693C19.2929 12.2454 19.4153 12.0905 19.5685 11.9665C20.579 11.0062 21.5283 10.0149 22.5082 9.02354ZM10.3819 22.6543C10.4125 22.7162 10.4738 22.7782 10.5044 22.8092C10.4738 22.8402 10.4738 22.8401 10.4431 22.8711C10.4125 22.8092 10.3513 22.7472 10.3206 22.6853C10.3513 22.6853 10.3819 22.6853 10.3819 22.6543ZM25.8153 5.83271C25.4479 6.23544 25.111 6.63817 24.7436 7.00991C24.6823 7.10285 24.5904 7.16481 24.4986 7.25775C24.2842 7.4746 24.0699 7.69145 23.8555 7.9083C23.7943 7.97026 23.7637 8.00124 23.7024 8.0632C23.6718 8.0632 23.6412 8.0632 23.6105 8.0632C23.5799 8.0632 23.5799 8.0632 23.5493 8.0632C23.6105 8.00124 23.6412 7.9083 23.6105 7.81537C23.8861 7.56753 24.1311 7.28872 24.4067 7.04089C24.5598 6.886 24.7436 6.7311 24.8967 6.57621C25.2641 6.23544 25.6316 5.89467 25.9991 5.5539C26.0297 5.52292 26.0297 5.52292 26.0603 5.49195C25.9991 5.61586 25.9072 5.7088 25.8153 5.83271ZM20.5484 9.76704C20.334 9.98389 20.1503 10.2007 19.9359 10.4176C19.201 11.223 18.4354 11.9975 17.7005 12.803C17.1493 13.3916 16.5981 13.9802 16.0469 14.5688C15.7713 14.8476 15.4957 15.1574 15.2508 15.4672C14.0565 16.7993 12.8623 18.1314 11.668 19.4634C11.3312 19.8352 10.9943 20.2069 10.6575 20.5787C10.6575 20.5477 10.6269 20.5477 10.6269 20.5167C10.535 20.3309 10.4431 20.145 10.3513 19.9591C10.3206 19.8972 10.29 19.8352 10.2594 19.7732C10.3513 19.6493 10.4738 19.5254 10.5656 19.4325C11.0556 18.8748 11.5455 18.2862 12.0355 17.7286C12.4948 17.202 12.9541 16.6444 13.4135 16.1177C13.5666 15.9628 13.6891 15.8079 13.8422 15.653C14.0259 15.4672 14.2096 15.2503 14.3934 15.0644C14.7914 14.7237 15.1895 14.3519 15.5876 14.0112C15.9857 13.6704 16.3838 13.3296 16.7819 12.9888C16.9044 12.8959 17.0268 12.772 17.1493 12.6791C18.2823 11.6568 19.4153 10.7274 20.5484 9.76704Z" fill="#6CA025"/>
<path d="M18.8335 8.74473C18.6192 8.96159 18.4048 9.14746 18.2211 9.36431C18.1598 9.42627 18.0986 9.48823 18.0374 9.55019C17.2412 10.4176 16.445 11.254 15.6795 12.1214C14.7914 13.0818 13.934 14.0112 13.046 14.9715C12.8929 15.1574 12.7398 15.3432 12.5867 15.4981C12.0967 16.0558 11.6068 16.6134 11.1474 17.202C11.0862 17.2949 10.9943 17.3879 10.9331 17.4498C10.8412 17.5428 10.7187 17.6357 10.6269 17.7286C10.4431 17.8835 10.2594 18.0694 10.1063 18.2243C9.95318 18.3792 9.80007 18.5341 9.64696 18.689C9.49385 18.4411 9.34074 18.1933 9.21825 17.9455C9.12639 17.7906 9.03452 17.6667 8.97328 17.5118C8.91203 17.4188 8.88141 17.3569 8.82017 17.2639C8.39146 16.6134 7.96276 15.9628 7.53405 15.3123C7.25845 14.8786 6.98286 14.4758 6.70726 14.0421C6.55415 13.7943 6.43166 13.5465 6.27855 13.3296C6.09482 12.9888 5.91109 12.6481 5.69673 12.3073C5.48238 11.9356 5.29865 11.5948 5.11492 11.223C5.05367 11.1301 4.93119 11.0682 4.83932 11.0682C4.77808 11.0682 4.71683 11.0682 4.68621 11.0991C4.5331 11.1921 4.47186 11.3779 4.56372 11.5638C4.71683 11.8426 4.86994 12.1524 5.02305 12.4312C5.11492 12.6171 5.23741 12.803 5.32927 12.9888C5.54363 13.3916 5.7886 13.8253 6.00295 14.228C6.03358 14.29 6.09482 14.3829 6.12544 14.4449C6.24793 14.6617 6.40104 14.8786 6.52353 15.0644C6.70726 15.3432 6.89099 15.653 7.10534 15.9318C7.35032 16.3036 7.59529 16.6753 7.84027 17.0471C7.96276 17.2639 8.11587 17.4498 8.23835 17.6667C8.2996 17.7286 8.33022 17.8216 8.39146 17.8835C8.63644 18.2862 8.85079 18.689 9.09577 19.0917C9.12639 19.1227 9.15701 19.1846 9.18763 19.2156C9.12639 19.2776 9.09577 19.3086 9.03452 19.3705C8.75892 18.9058 8.45271 18.4102 8.17711 17.9455C7.77902 17.2639 7.38094 16.5824 6.95223 15.9009C6.61539 15.3432 6.24793 14.7856 5.91109 14.228C5.54363 13.6394 5.17616 13.0818 4.8087 12.4932C4.74746 12.4002 4.65559 12.3383 4.56372 12.3073C4.37999 11.9975 4.19626 11.6568 4.04315 11.316C3.98191 11.1921 3.8288 11.0991 3.67569 11.0991C3.61445 11.0991 3.52258 11.1301 3.46134 11.1611C3.24698 11.285 3.18574 11.5328 3.30823 11.7497C3.5532 12.2144 3.79818 12.6481 4.04315 13.1128C4.13502 13.2677 4.25751 13.4535 4.34937 13.6084C4.62497 14.0731 4.90057 14.5378 5.17616 15.0025C4.8087 14.4758 4.44124 13.9492 4.07377 13.4226C3.98191 13.2986 3.89004 13.2057 3.76756 13.1747C3.73693 13.1747 3.67569 13.1437 3.61445 13.1437C3.52258 13.1437 3.43071 13.1747 3.33885 13.2057C3.21636 13.2677 3.1245 13.3916 3.09387 13.5155C3.06325 13.6394 3.06325 13.8253 3.15512 13.9182C4.1044 15.2503 5.02305 16.5824 5.94171 17.9145C6.4929 18.72 7.07472 19.5254 7.62592 20.3618C7.56467 20.2999 7.50343 20.2069 7.44218 20.145C7.28907 19.9901 7.16659 19.8042 7.0441 19.6493C6.73788 19.2776 6.43166 18.9058 6.12544 18.5031C5.69673 17.9765 5.26803 17.4188 4.8087 16.8922C4.37999 16.3036 3.92066 15.684 3.49196 15.0954C3.1245 14.7546 2.8489 14.3829 2.5733 14.0112C2.26708 13.6084 1.99148 13.1747 1.71589 12.772C1.65464 12.6791 1.5934 12.6171 1.47091 12.5861C1.44029 12.5861 1.40967 12.5861 1.37905 12.5861C1.3178 12.5861 1.25656 12.6171 1.19532 12.6481C1.01158 12.741 0.95034 13.0198 1.04221 13.1747C1.28718 13.5155 1.50153 13.8872 1.74651 14.228C1.869 14.3829 1.99148 14.5688 2.11397 14.7237C2.51206 15.2813 2.94076 15.8699 3.33885 16.4275C3.52258 16.6753 3.67569 16.8922 3.85942 17.14C3.95129 17.2639 4.04315 17.3879 4.1044 17.4808C4.34937 17.7906 4.59435 18.1004 4.83932 18.4102C5.26803 18.9678 5.72736 19.5254 6.15606 20.083C6.3398 20.3309 6.55415 20.5787 6.7685 20.8265C7.44218 21.601 8.08524 22.3755 8.75892 23.1809C8.85079 23.2739 8.94266 23.3978 9.0039 23.4907C8.97328 23.5527 8.91203 23.5836 8.88141 23.6456C8.51395 24.1103 8.17711 24.575 7.80965 25.0397C7.7484 25.1016 7.71778 25.1636 7.71778 25.2565C7.71778 25.3494 7.7484 25.4114 7.80965 25.4734C7.87089 25.5353 7.93213 25.5663 8.024 25.5663C8.08524 25.5663 8.17711 25.5353 8.23835 25.4734C8.63644 24.9777 9.0039 24.4511 9.40199 23.9554C9.43261 23.9864 9.46323 24.0173 9.49385 24.0483C9.24888 24.3581 8.97328 24.6369 8.7283 24.9467C8.60582 25.0706 8.54457 25.2255 8.54457 25.3804C8.54457 25.5353 8.60582 25.7212 8.7283 25.8141C8.97328 26.062 9.40199 26.062 9.61634 25.8141C9.83069 25.5663 10.045 25.3185 10.2594 25.0706C10.29 25.1326 10.3206 25.1945 10.3513 25.2565C10.4738 25.4734 10.7493 25.5663 10.9637 25.4734C10.9943 25.5353 11.0249 25.5973 11.0556 25.6283C11.2087 25.8451 11.4843 25.938 11.7292 25.8141C11.8517 25.7522 11.913 25.6283 11.9436 25.5043C11.9742 25.3804 11.9436 25.2565 11.8824 25.1326C11.7905 24.9157 11.668 24.7299 11.5149 24.544C12.158 23.7076 12.801 22.9021 13.4747 22.0657C14.2402 21.1363 15.0058 20.2379 15.7713 19.3085C16.0776 18.9368 16.4144 18.5341 16.7512 18.1623C17.4862 17.3259 18.2517 16.4895 18.9866 15.684C19.6603 14.9405 20.3034 14.197 20.9771 13.4535C21.467 12.8959 21.9876 12.3693 22.4775 11.8116C23.0287 11.223 23.5799 10.6344 24.1311 10.0458C24.7742 9.36431 25.4172 8.68278 26.0603 8.00124C26.5502 7.4746 27.0708 6.94796 27.5608 6.42131C27.7751 6.20446 27.9895 5.95663 28.1732 5.73978C28.4488 5.42999 28.6938 5.1202 28.9388 4.81041C28.9694 4.74845 29 4.65551 29 4.59356C29 4.46964 28.9694 4.3767 28.8775 4.28377C28.7856 4.19083 28.6938 4.15985 28.5713 4.15985C28.4488 4.15985 28.3569 4.19083 28.2651 4.28377C27.9895 4.62454 27.6833 4.93432 27.4077 5.24411C27.3158 5.33705 27.2239 5.42999 27.1627 5.52292L27.1933 5.49195C27.5301 5.08922 27.8364 4.68649 28.1426 4.25279C28.2651 4.09789 28.2345 3.88104 28.112 3.7881C28.0813 3.75713 28.0201 3.72615 27.9589 3.69517C27.9895 3.66419 28.0201 3.63321 28.0507 3.57125C28.0813 3.54027 28.112 3.50929 28.1426 3.47831C28.1732 3.41636 28.2038 3.38538 28.2651 3.32342C28.2651 3.29244 28.2651 3.29244 28.2957 3.26146C28.3263 3.23048 28.3263 3.16853 28.3569 3.13755C28.3876 3.04461 28.3569 2.88972 28.2651 2.82776C28.2038 2.7658 28.112 2.73482 28.0201 2.73482C27.9895 2.73482 27.9589 2.73482 27.9282 2.73482C27.867 2.7658 27.8057 2.7658 27.7445 2.79678C27.6526 2.82776 27.5914 2.85874 27.4995 2.92069C27.4077 2.95167 27.3464 3.01363 27.2546 3.04461C27.1321 3.10657 27.0096 3.16853 26.9177 3.23048C26.8258 3.29244 26.7646 3.41636 26.7646 3.50929C26.6115 3.69517 26.4278 3.85006 26.2747 4.00496C26.1828 4.12887 26.0603 4.22181 25.9378 4.31475C25.8459 4.40768 25.7541 4.50062 25.6622 4.56258C25.6316 4.59356 25.5703 4.65551 25.5397 4.68649C25.2335 4.9653 24.9273 5.24411 24.6211 5.49195C24.4067 5.67782 24.1924 5.86369 23.978 6.01859C22.7838 7.00991 21.5895 8.00124 20.3952 8.99257C20.2728 9.0855 20.1503 9.20942 20.0278 9.30235C20.2421 9.0855 20.4565 8.86865 20.6708 8.6518C21.6201 7.66047 22.6 6.70012 23.5493 5.73978C23.6718 5.61586 23.7943 5.49195 23.9168 5.36803C24.1924 5.1202 24.468 4.84139 24.7436 4.59356C25.1416 4.22181 25.5703 3.88104 25.9378 3.50929C25.9684 3.47831 25.9991 3.44734 25.9991 3.41636C26.1522 3.29244 26.3053 3.13755 26.4584 3.01363C26.6727 2.79678 26.8871 2.6109 27.1014 2.39405C27.377 2.11524 27.6833 1.83643 27.9282 1.55762C27.9895 1.49566 28.0201 1.40273 28.0201 1.30979C28.0201 1.21685 27.9895 1.12392 27.9282 1.06196C27.8976 1.03098 27.8057 1 27.7445 1C27.6526 1 27.5608 1.03098 27.4995 1.09294C27.2239 1.37175 26.9177 1.61958 26.6421 1.89839C26.4278 2.11524 26.1828 2.30112 25.9684 2.51797C25.8766 2.57993 25.8153 2.67286 25.7235 2.73482C25.6928 2.73482 25.6316 2.70384 25.601 2.70384C25.5091 2.70384 25.4172 2.73482 25.356 2.7658C24.866 3.16853 24.4067 3.57125 23.9168 3.97398C23.7024 4.15985 23.4881 4.34573 23.2737 4.5316C23.1206 4.65551 22.9675 4.77943 22.845 4.90335C22.3244 5.36803 21.8345 5.83271 21.3139 6.2974C21.0383 6.54523 20.7933 6.79306 20.5484 7.07187C19.9665 7.62949 19.4153 8.18711 18.8335 8.74473ZM22.5082 9.02354C22.5694 8.96159 22.6 8.93061 22.6613 8.86865V8.89963C22.5694 9.02354 22.4775 9.11648 22.355 9.2404C22.1713 9.42627 21.9876 9.64312 21.8345 9.829C21.467 10.2627 21.0996 10.6654 20.7321 11.0991C20.4871 11.3779 20.2728 11.6258 20.0278 11.9046C19.8747 12.0595 19.7522 12.2144 19.5991 12.3693C19.3847 12.5861 19.1704 12.803 18.956 13.0198C18.8029 13.1747 18.6804 13.3296 18.5579 13.4535C17.7618 14.3519 16.9656 15.2193 16.1694 16.1177C15.3733 16.9851 14.6077 17.8525 13.8115 18.72C12.8929 19.7423 12.0048 20.7646 11.0862 21.8178C11.0556 21.8488 11.0556 21.8798 11.0249 21.9108L10.9943 21.8798C11.2087 21.632 11.423 21.3841 11.6068 21.1363C12.7398 19.7732 13.8728 18.3792 15.0058 17.0161C15.1589 16.8302 15.2814 16.6753 15.4345 16.4895C15.4651 16.4275 15.5264 16.3965 15.557 16.3346C16.0163 15.8389 16.4756 15.3432 16.935 14.8166C17.5474 14.166 18.1598 13.4845 18.7417 12.834C18.8948 12.6791 19.0173 12.5242 19.1704 12.3693C19.2929 12.2454 19.4153 12.0905 19.5685 11.9665C20.579 11.0062 21.5283 10.0149 22.5082 9.02354ZM10.3819 22.6543C10.4125 22.7162 10.4738 22.7782 10.5044 22.8092C10.4738 22.8402 10.4738 22.8401 10.4431 22.8711C10.4125 22.8092 10.3513 22.7472 10.3206 22.6853C10.3513 22.6853 10.3819 22.6853 10.3819 22.6543ZM25.8153 5.83271C25.4479 6.23544 25.111 6.63817 24.7436 7.00991C24.6823 7.10285 24.5904 7.16481 24.4986 7.25775C24.2842 7.4746 24.0699 7.69145 23.8555 7.9083C23.7943 7.97026 23.7637 8.00124 23.7024 8.0632C23.6718 8.0632 23.6412 8.0632 23.6105 8.0632C23.5799 8.0632 23.5799 8.0632 23.5493 8.0632C23.6105 8.00124 23.6412 7.9083 23.6105 7.81537C23.8861 7.56753 24.1311 7.28872 24.4067 7.04089C24.5598 6.886 24.7436 6.7311 24.8967 6.57621C25.2641 6.23544 25.6316 5.89467 25.9991 5.5539C26.0297 5.52292 26.0297 5.52292 26.0603 5.49195C25.9991 5.61586 25.9072 5.7088 25.8153 5.83271ZM20.5484 9.76704C20.334 9.98389 20.1503 10.2007 19.9359 10.4176C19.201 11.223 18.4354 11.9975 17.7005 12.803C17.1493 13.3916 16.5981 13.9802 16.0469 14.5688C15.7713 14.8476 15.4957 15.1574 15.2508 15.4672C14.0565 16.7993 12.8623 18.1314 11.668 19.4634C11.3312 19.8352 10.9943 20.2069 10.6575 20.5787C10.6575 20.5477 10.6269 20.5477 10.6269 20.5167C10.535 20.3309 10.4431 20.145 10.3513 19.9591C10.3206 19.8972 10.29 19.8352 10.2594 19.7732C10.3513 19.6493 10.4738 19.5254 10.5656 19.4325C11.0556 18.8748 11.5455 18.2862 12.0355 17.7286C12.4948 17.202 12.9541 16.6444 13.4135 16.1177C13.5666 15.9628 13.6891 15.8079 13.8422 15.653C14.0259 15.4672 14.2096 15.2503 14.3934 15.0644C14.7914 14.7237 15.1895 14.3519 15.5876 14.0112C15.9857 13.6704 16.3838 13.3296 16.7819 12.9888C16.9044 12.8959 17.0268 12.772 17.1493 12.6791C18.2823 11.6568 19.4153 10.7274 20.5484 9.76704Z" stroke="#6CA025" stroke-width="2" mask="url(#path-1-outside-1)"/>
</svg>
