<svg width="233" height="17" viewBox="0 0 233 17" fill="none" xmlns="http://www.w3.org/2000/svg">
<path d="M2 2C8.60086 3.05333 15.1588 2.89473 21.8459 2.83708C42.9268 2.65535 63.8576 2.76185 84.941 3.67417C130.646 5.65189 176.263 8.96134 221.804 13.2309C223.642 13.4032 225.481 13.5764 227.315 13.7889C228.466 13.9223 231.066 13.3072 230.733 14.4167C230.425 15.4422 228.595 14.5659 227.524 14.5563C223.111 14.5167 216.875 14.3043 212.806 14.1377C165.983 12.221 119.178 11.1199 72.3499 9.49887C60.37 9.08419 48.1173 7.94404 36.1112 8.69667C33.8915 8.83581 30.4491 9.13912 28.403 10.4057C27.6116 10.8957 29.96 11.551 30.8794 11.6962C45.6758 14.0325 61.2672 13.2886 76.1517 13.1611C124.689 12.7456 174.135 7.28492 222.537 12.5333C230.971 13.4478 221.523 13.6218 219.223 13.9284" stroke="#41A12C" stroke-width="3" stroke-linecap="round"/>
</svg>
