<svg width="369" height="17" viewBox="0 0 369 17" fill="none" xmlns="http://www.w3.org/2000/svg">
<path d="M367 2C356.468 3.06033 346.005 2.90068 335.335 2.84265C301.7 2.65971 268.303 2.76691 234.664 3.68529C161.74 5.67616 88.9566 9.00761 16.293 13.3055C13.36 13.479 10.4266 13.6533 7.50028 13.8673C5.66425 14.0015 1.51546 13.3823 2.04657 14.4993C2.53742 15.5315 5.45825 14.6494 7.1664 14.6397C14.2087 14.5999 24.1578 14.3861 30.6507 14.2184C105.359 12.2889 180.037 11.1805 254.754 9.54871C273.868 9.13127 293.418 7.98355 312.574 8.74117C316.116 8.88124 321.608 9.18656 324.873 10.4616C326.136 10.9548 322.389 11.6145 320.922 11.7607C297.313 14.1125 272.437 13.3636 248.688 13.2353C171.244 12.817 92.3514 7.32004 15.1244 12.6033C1.66745 13.5239 16.7414 13.699 20.4111 14.0077" stroke="#41A12C" stroke-width="3" stroke-linecap="round"/>
</svg>
