<svg width="359" height="17" viewBox="0 0 359 17" fill="none" xmlns="http://www.w3.org/2000/svg">
<path d="M2 2C12.2434 3.06033 22.4202 2.90068 32.7974 2.84265C65.5114 2.65971 97.9925 2.76691 130.71 3.68529C201.636 5.67616 272.426 9.00761 343.099 13.3055C345.951 13.479 348.804 13.6533 351.65 13.8673C353.436 14.0015 357.471 13.3823 356.955 14.4993C356.477 15.5315 353.636 14.6494 351.975 14.6397C345.126 14.5999 335.449 14.3861 329.134 14.2184C256.473 12.2889 183.841 11.1805 111.171 9.54871C92.5803 9.13127 73.5662 7.98355 54.9347 8.74117C51.4902 8.88124 46.1481 9.18656 42.973 10.4616C41.7448 10.9548 45.3891 11.6145 46.8159 11.7607C69.7774 14.1125 93.9726 13.3636 117.071 13.2353C192.392 12.817 269.124 7.32004 344.235 12.6033C357.323 13.5239 342.662 13.699 339.093 14.0077" stroke="#41A12C" stroke-width="3" stroke-linecap="round"/>
</svg>
