<svg width="305" height="19" viewBox="0 0 305 19" fill="none" xmlns="http://www.w3.org/2000/svg">
<path d="M3 3C11.6275 4.06033 20.199 3.90068 28.9392 3.84265C56.4927 3.65971 83.85 3.76691 111.407 4.68529C171.144 6.67616 230.767 10.0076 290.291 14.3055C292.694 14.479 295.097 14.6533 297.494 14.8673C298.998 15.0015 302.397 14.3823 301.962 15.4993C301.56 16.5315 299.167 15.6494 297.768 15.6397C291.999 15.5999 283.849 15.3861 278.53 15.2184C217.331 13.2889 156.156 12.1805 94.9497 10.5487C79.2916 10.1313 63.2769 8.98355 47.5844 9.74117C44.6833 9.88124 40.1839 10.1866 37.5096 11.4616C36.4752 11.9548 39.5446 12.6145 40.7463 12.7607C60.0857 15.1125 80.4643 14.3636 99.9187 14.2353C163.359 13.817 227.986 8.32004 291.249 13.6033C302.272 14.5239 289.924 14.699 286.918 15.0077" stroke="#41A12C" stroke-width="5" stroke-linecap="round"/>
</svg>
