<svg width="215" height="17" viewBox="0 0 215 17" fill="none" xmlns="http://www.w3.org/2000/svg">
<path d="M213 2C206.912 3.06033 200.863 2.90068 194.695 2.84265C175.251 2.65971 155.945 2.76691 136.499 3.68529C94.343 5.67616 52.2681 9.00761 10.2625 13.3055C8.567 13.479 6.87127 13.6533 5.17962 13.8673C4.11825 14.0015 1.7199 13.3823 2.02693 14.4993C2.31068 15.5315 3.99916 14.6494 4.98661 14.6397C9.05765 14.5999 14.809 14.3861 18.5625 14.2184C61.7498 12.2889 104.92 11.1805 148.112 9.54871C159.162 9.13127 170.463 7.98355 181.537 8.74117C183.585 8.88124 186.76 9.18656 188.647 10.4616C189.377 10.9548 187.211 11.6145 186.363 11.7607C172.715 14.1125 158.335 13.3636 144.606 13.2353C99.8372 12.817 54.2306 7.32004 9.58697 12.6033C1.80777 13.5239 10.5217 13.699 12.6431 14.0077" stroke="#41A12C" stroke-width="3" stroke-linecap="round"/>
</svg>
