<svg width="124" height="124" viewBox="0 0 124 124" fill="none" xmlns="http://www.w3.org/2000/svg">
<circle cx="62" cy="62" r="61" fill="white" stroke="#6CA025" stroke-width="2"/>
<path d="M85.8755 78.4978L70.8889 56.3822V37.1111H72.6667C73.1381 37.1111 73.5903 36.9238 73.9237 36.5904C74.2571 36.257 74.4444 35.8048 74.4444 35.3333C74.4444 34.8618 74.2571 34.4096 73.9237 34.0762C73.5903 33.7428 73.1381 33.5555 72.6667 33.5555H51.3333C50.8618 33.5555 50.4096 33.7428 50.0762 34.0762C49.7428 34.4096 49.5555 34.8618 49.5555 35.3333C49.5555 35.8048 49.7428 36.257 50.0762 36.5904C50.4096 36.9238 50.8618 37.1111 51.3333 37.1111H53.1111V56.3822L38.0178 78.64C37.0169 80.1022 36.5564 81.8673 36.7153 83.6321C36.8743 85.3969 37.6428 87.0513 38.8889 88.3111C39.6351 89.0189 40.5143 89.5719 41.4754 89.938C42.4366 90.3042 43.4608 90.4763 44.4889 90.4444H79.7778C81.1627 90.4382 82.5192 90.0505 83.6983 89.3239C84.8774 88.5974 85.8336 87.56 86.4618 86.3256C87.0899 85.0913 87.3659 83.7077 87.2594 82.3269C87.1528 80.946 86.6679 79.6211 85.8578 78.4978H85.8755ZM83.0667 85.1111C82.6419 85.6514 82.1028 86.091 81.4881 86.3983C80.8733 86.7057 80.1982 86.8732 79.5111 86.8889H44.2222C43.4297 86.8913 42.6551 86.6529 42.0011 86.2053C41.3471 85.7576 40.8446 85.1219 40.56 84.3822C40.3695 83.7391 40.317 83.0631 40.4059 82.3983C40.4947 81.7335 40.7229 81.0949 41.0755 80.5244L46.4089 72.6311H71.2978L68.9689 69.0755H48.7911L56.6667 57.4844V37.1111H67.3333V57.4844L83.0489 80.6844C83.4917 81.3369 83.73 82.1065 83.7331 82.8951C83.7363 83.6836 83.5043 84.4551 83.0667 85.1111Z" fill="#6CA025"/>
</svg>
