<svg width="124" height="124" viewBox="0 0 124 124" fill="none" xmlns="http://www.w3.org/2000/svg">
<circle cx="62" cy="62" r="61" fill="white" stroke="#6CA025" stroke-width="2"/>
<path d="M46.1211 42.5762H49.6367V39.0459H53.167V35.5303H49.6367V32H46.1211V35.5303H42.5908V39.0459H46.1211V42.5762Z" fill="#6CA025"/>
<path d="M39.0605 49.6514H42.5762V53.167H39.0605V49.6514Z" fill="#6CA025"/>
<path d="M35.5303 42.5908H39.0459V46.1064H35.5303V42.5908Z" fill="#6CA025"/>
<path d="M83.2805 58.4204C86.161 52.499 85.1469 45.1454 80.2358 40.2342C74.0446 34.043 63.9709 34.043 57.7798 40.2343L36.6434 61.3704C30.4522 67.5616 30.4522 77.6354 36.6434 83.8265C42.8345 90.0176 52.9083 90.0178 59.0994 83.8265L62.3818 80.5441C65.1334 85.279 70.2614 88.4698 76.121 88.4698C84.8767 88.4698 91.9999 81.3466 91.9999 72.5909C92 66.4096 88.4491 61.0423 83.2805 58.4204ZM88.3589 70.8333H63.8834C64.7394 64.8459 69.9007 60.2279 76.1211 60.2279C82.3416 60.2279 87.5028 64.8458 88.3589 70.8333ZM60.2655 42.7202C65.0859 37.8997 72.9294 37.8997 77.7498 42.7202C81.6584 46.6286 82.3945 52.5233 79.9649 57.1837C78.7336 56.8764 77.4462 56.7122 76.1211 56.7122C70.5718 56.7122 65.6792 59.5742 62.8394 63.899L50.9631 52.0226L60.2655 42.7202ZM56.6136 81.3407C51.7931 86.1611 43.9498 86.1611 39.1294 81.3407L39.1292 81.3406C34.3089 76.5202 34.3089 68.6769 39.1292 63.8565L48.4771 54.5087L61.1807 67.2122C60.5737 68.8928 60.2421 70.704 60.2421 72.5912C60.2421 74.1454 60.4676 75.6478 60.8858 77.0684L56.6136 81.3407ZM76.1211 84.9544C69.9007 84.9544 64.7394 80.3364 63.8834 74.349H88.3589C87.5028 80.3364 82.3416 84.9544 76.1211 84.9544Z" fill="#6CA025"/>
</svg>
