<svg width="124" height="124" viewBox="0 0 124 124" fill="none" xmlns="http://www.w3.org/2000/svg">
<circle cx="62" cy="62" r="61" fill="white" stroke="#6CA025" stroke-width="2"/>
<path d="M62 86L67.3333 80.6667M74 80.6667C75.7681 80.6667 77.4638 79.9643 78.714 78.714C79.9643 77.4638 80.6667 75.7681 80.6667 74C80.6667 72.2319 79.9643 70.5362 78.714 69.286C77.4638 68.0357 75.7681 67.3333 74 67.3333C72.2319 67.3333 70.5362 68.0357 69.286 69.286C68.0357 70.5362 67.3333 72.2319 67.3333 74C67.3333 75.7681 68.0357 77.4638 69.286 78.714C70.5362 79.9643 72.2319 80.6667 74 80.6667V80.6667ZM56.6667 43.3333L62 38L56.6667 43.3333ZM50 56.6667C51.7681 56.6667 53.4638 55.9643 54.714 54.714C55.9643 53.4638 56.6667 51.7681 56.6667 50C56.6667 48.2319 55.9643 46.5362 54.714 45.286C53.4638 44.0357 51.7681 43.3333 50 43.3333C48.2319 43.3333 46.5362 44.0357 45.286 45.286C44.0357 46.5362 43.3333 48.2319 43.3333 50C43.3333 51.7681 44.0357 53.4638 45.286 54.714C46.5362 55.9643 48.2319 56.6667 50 56.6667V56.6667ZM51.3333 72.6667L72.6667 51.3333L51.3333 72.6667ZM44.6667 86C46.4348 86 48.1305 85.2976 49.3807 84.0474C50.631 82.7971 51.3333 81.1014 51.3333 79.3333C51.3333 77.5652 50.631 75.8695 49.3807 74.6193C48.1305 73.369 46.4348 72.6667 44.6667 72.6667C42.8986 72.6667 41.2029 73.369 39.9526 74.6193C38.7024 75.8695 38 77.5652 38 79.3333C38 81.1014 38.7024 82.7971 39.9526 84.0474C41.2029 85.2976 42.8986 86 44.6667 86V86ZM79.3333 51.3333C81.1014 51.3333 82.7971 50.631 84.0474 49.3807C85.2976 48.1305 86 46.4348 86 44.6667C86 42.8986 85.2976 41.2029 84.0474 39.9526C82.7971 38.7024 81.1014 38 79.3333 38C77.5652 38 75.8695 38.7024 74.6193 39.9526C73.369 41.2029 72.6667 42.8986 72.6667 44.6667C72.6667 46.4348 73.369 48.1305 74.6193 49.3807C75.8695 50.631 77.5652 51.3333 79.3333 51.3333Z" stroke="#6CA025" stroke-width="4" stroke-linecap="square" stroke-linejoin="round"/>
</svg>
