<svg width="124" height="124" viewBox="0 0 124 124" fill="none" xmlns="http://www.w3.org/2000/svg">
<circle cx="62" cy="62" r="61" fill="white" stroke="#6CA025" stroke-width="2"/>
<path d="M80.6794 78.5715C81.899 75.6018 82.2261 72.3324 81.6194 69.1746C81.0127 66.0168 79.4995 63.1114 77.2698 60.8237C77.8834 59.2552 77.9997 57.5316 77.6027 55.8929C77.2056 54.2541 76.315 52.7817 75.0546 51.6805L80.7223 45.9303C81.4874 45.1527 81.9172 44.0989 81.9172 43.0002C81.9172 41.9015 81.4874 40.8477 80.7223 40.0702L74.9485 34.2123C74.1821 33.436 73.1434 33 72.0605 33C70.9776 33 69.9389 33.436 69.1726 34.2123L42.2798 61.4969C41.5151 62.2747 41.0857 63.3284 41.0857 64.4269C41.0857 65.5254 41.5151 66.5791 42.2798 67.3569L48.0536 73.2149C48.8199 73.9911 49.8586 74.4272 50.9415 74.4272C52.0244 74.4272 53.0631 73.9911 53.8295 73.2149L63.5784 63.3239C64.9609 64.9459 66.918 65.9496 69.0251 66.1171C71.1322 66.2846 73.2195 65.6025 74.8341 64.2187C76.5127 66.167 77.5435 68.6023 77.7803 71.1788C78.017 73.7553 77.4477 76.342 76.153 78.5715H61.5V86.8572H37V91H86V78.5715H80.6794ZM50.9405 70.2859L45.1667 64.4259L49.003 60.5358L54.7768 66.3937L50.9405 70.2859ZM61.5 57.8574C61.5029 58.3805 61.5549 58.9021 61.6552 59.4151L57.6637 63.4647L51.8899 57.6068L72.0615 37.1413L77.8333 42.9992L71.2 49.7313C70.0189 49.4935 68.8005 49.5252 67.633 49.8241C66.4655 50.123 65.3781 50.6816 64.4497 51.4594C63.5212 52.2372 62.7748 53.2149 62.2647 54.3214C61.7545 55.428 61.4933 56.6358 61.5 57.8574ZM69.6667 62.0003C68.8591 62.0003 68.0696 61.7573 67.3981 61.3021C66.7266 60.8468 66.2032 60.1998 65.8942 59.4428C65.5851 58.6858 65.5042 57.8528 65.6618 57.0492C65.8194 56.2456 66.2083 55.5074 66.7793 54.928C67.3504 54.3486 68.078 53.9541 68.87 53.7942C69.6621 53.6344 70.4832 53.7164 71.2293 54.03C71.9754 54.3435 72.6132 54.8745 73.0618 55.5558C73.5105 56.2371 73.75 57.0381 73.75 57.8574C73.7489 58.9558 73.3184 60.0089 72.5528 60.7856C71.7873 61.5623 70.7493 61.9992 69.6667 62.0003ZM81.9167 86.8572H65.5833V82.7144H81.9167V86.8572Z" fill="#6CA025"/>
</svg>
